<svg width="112" height="12" viewBox="0 0 112 12" fill="none" xmlns="http://www.w3.org/2000/svg">
<path d="M7.13475 9.012H3.06075L2.36075 11H0.69475L4.18075 1.256H6.02875L9.51475 11H7.83475L7.13475 9.012ZM6.68675 7.71L5.10475 3.188L3.50875 7.71H6.68675ZM14.9225 3.16C15.5291 3.16 16.0705 3.286 16.5465 3.538C17.0318 3.79 17.4098 4.16333 17.6805 4.658C17.9511 5.15267 18.0865 5.75 18.0865 6.45V11H16.5045V6.688C16.5045 5.99733 16.3318 5.47 15.9865 5.106C15.6411 4.73267 15.1698 4.546 14.5725 4.546C13.9751 4.546 13.4991 4.73267 13.1445 5.106C12.7991 5.47 12.6265 5.99733 12.6265 6.688V11H11.0305V3.286H12.6265V4.168C12.8878 3.85067 13.2191 3.60333 13.6205 3.426C14.0311 3.24867 14.4651 3.16 14.9225 3.16ZM22.9223 11.126C22.3156 11.126 21.7696 11.0187 21.2843 10.804C20.8083 10.58 20.4303 10.2813 20.1503 9.908C19.8703 9.52533 19.7209 9.10067 19.7023 8.634H21.3543C21.3823 8.96067 21.5363 9.236 21.8163 9.46C22.1056 9.67467 22.4649 9.782 22.8943 9.782C23.3423 9.782 23.6876 9.698 23.9303 9.53C24.1823 9.35267 24.3083 9.12867 24.3083 8.858C24.3083 8.56867 24.1683 8.354 23.8883 8.214C23.6176 8.074 23.1836 7.92 22.5863 7.752C22.0076 7.59333 21.5363 7.43933 21.1723 7.29C20.8083 7.14067 20.4909 6.912 20.2203 6.604C19.9589 6.296 19.8283 5.89 19.8283 5.386C19.8283 4.97533 19.9496 4.602 20.1923 4.266C20.4349 3.92067 20.7803 3.65 21.2283 3.454C21.6856 3.258 22.2083 3.16 22.7963 3.16C23.6736 3.16 24.3783 3.384 24.9103 3.832C25.4516 4.27067 25.7409 4.87267 25.7783 5.638H24.1823C24.1543 5.29267 24.0143 5.01733 23.7623 4.812C23.5103 4.60667 23.1696 4.504 22.7403 4.504C22.3203 4.504 21.9983 4.58333 21.7743 4.742C21.5503 4.90067 21.4383 5.11067 21.4383 5.372C21.4383 5.57733 21.5129 5.75 21.6623 5.89C21.8116 6.03 21.9936 6.142 22.2083 6.226C22.4229 6.30067 22.7403 6.39867 23.1603 6.52C23.7203 6.66933 24.1776 6.82333 24.5323 6.982C24.8963 7.13133 25.2089 7.35533 25.4703 7.654C25.7316 7.95267 25.8669 8.34933 25.8763 8.844C25.8763 9.28267 25.7549 9.67467 25.5123 10.02C25.2696 10.3653 24.9243 10.636 24.4763 10.832C24.0376 11.028 23.5196 11.126 22.9223 11.126ZM34.6708 6.954C34.6708 7.24333 34.6521 7.50467 34.6148 7.738H28.7208C28.7674 8.354 28.9961 8.84867 29.4068 9.222C29.8174 9.59533 30.3214 9.782 30.9188 9.782C31.7774 9.782 32.3841 9.42267 32.7388 8.704H34.4608C34.2274 9.41333 33.8028 9.99667 33.1868 10.454C32.5801 10.902 31.8241 11.126 30.9188 11.126C30.1814 11.126 29.5188 10.9627 28.9308 10.636C28.3521 10.3 27.8948 9.83333 27.5588 9.236C27.2321 8.62933 27.0688 7.92933 27.0688 7.136C27.0688 6.34267 27.2274 5.64733 27.5448 5.05C27.8714 4.44333 28.3241 3.97667 28.9028 3.65C29.4908 3.32333 30.1628 3.16 30.9188 3.16C31.6468 3.16 32.2954 3.31867 32.8648 3.636C33.4341 3.95333 33.8774 4.40133 34.1948 4.98C34.5121 5.54933 34.6708 6.20733 34.6708 6.954ZM33.0048 6.45C32.9954 5.862 32.7854 5.39067 32.3748 5.036C31.9641 4.68133 31.4554 4.504 30.8488 4.504C30.2981 4.504 29.8268 4.68133 29.4348 5.036C29.0428 5.38133 28.8094 5.85267 28.7348 6.45H33.0048ZM37.8374 0.64V11H36.2414V0.64H37.8374ZM49.2708 3.16C49.8775 3.16 50.4188 3.286 50.8948 3.538C51.3801 3.79 51.7581 4.16333 52.0288 4.658C52.3088 5.15267 52.4488 5.75 52.4488 6.45V11H50.8668V6.688C50.8668 5.99733 50.6941 5.47 50.3488 5.106C50.0035 4.73267 49.5321 4.546 48.9348 4.546C48.3375 4.546 47.8615 4.73267 47.5068 5.106C47.1615 5.47 46.9888 5.99733 46.9888 6.688V11H45.4068V6.688C45.4068 5.99733 45.2341 5.47 44.8888 5.106C44.5435 4.73267 44.0721 4.546 43.4748 4.546C42.8775 4.546 42.4015 4.73267 42.0468 5.106C41.7015 5.47 41.5288 5.99733 41.5288 6.688V11H39.9328V3.286H41.5288V4.168C41.7901 3.85067 42.1215 3.60333 42.5228 3.426C42.9241 3.24867 43.3535 3.16 43.8108 3.16C44.4268 3.16 44.9775 3.29067 45.4628 3.552C45.9481 3.81333 46.3215 4.19133 46.5828 4.686C46.8161 4.21933 47.1801 3.85067 47.6748 3.58C48.1695 3.3 48.7015 3.16 49.2708 3.16ZM57.8257 11.126C57.0977 11.126 56.4397 10.9627 55.8517 10.636C55.2637 10.3 54.8017 9.83333 54.4657 9.236C54.1297 8.62933 53.9617 7.92933 53.9617 7.136C53.9617 6.352 54.1344 5.65667 54.4797 5.05C54.825 4.44333 55.2964 3.97667 55.8937 3.65C56.491 3.32333 57.1584 3.16 57.8957 3.16C58.633 3.16 59.3004 3.32333 59.8977 3.65C60.495 3.97667 60.9664 4.44333 61.3117 5.05C61.657 5.65667 61.8297 6.352 61.8297 7.136C61.8297 7.92 61.6524 8.61533 61.2977 9.222C60.943 9.82867 60.4577 10.3 59.8417 10.636C59.235 10.9627 58.563 11.126 57.8257 11.126ZM57.8257 9.74C58.2364 9.74 58.619 9.642 58.9737 9.446C59.3377 9.25 59.6317 8.956 59.8557 8.564C60.0797 8.172 60.1917 7.696 60.1917 7.136C60.1917 6.576 60.0844 6.10467 59.8697 5.722C59.655 5.33 59.3704 5.036 59.0157 4.84C58.661 4.644 58.2784 4.546 57.8677 4.546C57.457 4.546 57.0744 4.644 56.7197 4.84C56.3744 5.036 56.099 5.33 55.8937 5.722C55.6884 6.10467 55.5857 6.576 55.5857 7.136C55.5857 7.96667 55.7957 8.61067 56.2157 9.068C56.645 9.516 57.1817 9.74 57.8257 9.74ZM66.5121 6.114C66.5121 5.162 66.7315 4.308 67.1701 3.552C67.6181 2.796 68.2201 2.208 68.9761 1.788C69.7415 1.35867 70.5768 1.144 71.4821 1.144C72.5181 1.144 73.4375 1.40067 74.2401 1.914C75.0521 2.418 75.6401 3.13667 76.0041 4.07H74.0861C73.8341 3.55667 73.4841 3.174 73.0361 2.922C72.5881 2.67 72.0701 2.544 71.4821 2.544C70.8381 2.544 70.2641 2.68867 69.7601 2.978C69.2561 3.26733 68.8595 3.68267 68.5701 4.224C68.2901 4.76533 68.1501 5.39533 68.1501 6.114C68.1501 6.83267 68.2901 7.46267 68.5701 8.004C68.8595 8.54533 69.2561 8.96533 69.7601 9.264C70.2641 9.55333 70.8381 9.698 71.4821 9.698C72.0701 9.698 72.5881 9.572 73.0361 9.32C73.4841 9.068 73.8341 8.68533 74.0861 8.172H76.0041C75.6401 9.10533 75.0521 9.824 74.2401 10.328C73.4375 10.832 72.5181 11.084 71.4821 11.084C70.5675 11.084 69.7321 10.874 68.9761 10.454C68.2201 10.0247 67.6181 9.432 67.1701 8.676C66.7315 7.92 66.5121 7.066 66.5121 6.114ZM77.3403 7.108C77.3403 6.33333 77.4989 5.64733 77.8163 5.05C78.1429 4.45267 78.5816 3.99067 79.1323 3.664C79.6923 3.328 80.3083 3.16 80.9803 3.16C81.5869 3.16 82.1143 3.28133 82.5623 3.524C83.0196 3.75733 83.3836 4.05133 83.6543 4.406V3.286H85.2643V11H83.6543V9.852C83.3836 10.216 83.0149 10.5193 82.5483 10.762C82.0816 11.0047 81.5496 11.126 80.9523 11.126C80.2896 11.126 79.6829 10.958 79.1323 10.622C78.5816 10.2767 78.1429 9.80067 77.8163 9.194C77.4989 8.578 77.3403 7.88267 77.3403 7.108ZM83.6543 7.136C83.6543 6.604 83.5423 6.142 83.3183 5.75C83.1036 5.358 82.8189 5.05933 82.4643 4.854C82.1096 4.64867 81.7269 4.546 81.3163 4.546C80.9056 4.546 80.5229 4.64867 80.1683 4.854C79.8136 5.05 79.5243 5.344 79.3003 5.736C79.0856 6.11867 78.9783 6.576 78.9783 7.108C78.9783 7.64 79.0856 8.10667 79.3003 8.508C79.5243 8.90933 79.8136 9.21733 80.1683 9.432C80.5323 9.63733 80.9149 9.74 81.3163 9.74C81.7269 9.74 82.1096 9.63733 82.4643 9.432C82.8189 9.22667 83.1036 8.928 83.3183 8.536C83.5423 8.13467 83.6543 7.668 83.6543 7.136ZM88.9565 4.406C89.1899 4.014 89.4979 3.71067 89.8805 3.496C90.2725 3.272 90.7345 3.16 91.2665 3.16V4.812H90.8605C90.2352 4.812 89.7592 4.97067 89.4325 5.288C89.1152 5.60533 88.9565 6.156 88.9565 6.94V11H87.3605V3.286H88.9565V4.406ZM94.3296 0.64V11H92.7336V0.64H94.3296ZM99.771 11.126C99.043 11.126 98.385 10.9627 97.797 10.636C97.209 10.3 96.747 9.83333 96.411 9.236C96.075 8.62933 95.907 7.92933 95.907 7.136C95.907 6.352 96.0797 5.65667 96.425 5.05C96.7703 4.44333 97.2417 3.97667 97.839 3.65C98.4363 3.32333 99.1037 3.16 99.841 3.16C100.578 3.16 101.246 3.32333 101.843 3.65C102.44 3.97667 102.912 4.44333 103.257 5.05C103.602 5.65667 103.775 6.352 103.775 7.136C103.775 7.92 103.598 8.61533 103.243 9.222C102.888 9.82867 102.403 10.3 101.787 10.636C101.18 10.9627 100.508 11.126 99.771 11.126ZM99.771 9.74C100.182 9.74 100.564 9.642 100.919 9.446C101.283 9.25 101.577 8.956 101.801 8.564C102.025 8.172 102.137 7.696 102.137 7.136C102.137 6.576 102.03 6.10467 101.815 5.722C101.6 5.33 101.316 5.036 100.961 4.84C100.606 4.644 100.224 4.546 99.813 4.546C99.4023 4.546 99.0197 4.644 98.665 4.84C98.3197 5.036 98.0443 5.33 97.839 5.722C97.6337 6.10467 97.531 6.576 97.531 7.136C97.531 7.96667 97.741 8.61067 98.161 9.068C98.5903 9.516 99.127 9.74 99.771 9.74ZM108.153 11.126C107.546 11.126 107 11.0187 106.515 10.804C106.039 10.58 105.661 10.2813 105.381 9.908C105.101 9.52533 104.951 9.10067 104.933 8.634H106.585C106.613 8.96067 106.767 9.236 107.047 9.46C107.336 9.67467 107.695 9.782 108.125 9.782C108.573 9.782 108.918 9.698 109.161 9.53C109.413 9.35267 109.539 9.12867 109.539 8.858C109.539 8.56867 109.399 8.354 109.119 8.214C108.848 8.074 108.414 7.92 107.817 7.752C107.238 7.59333 106.767 7.43933 106.403 7.29C106.039 7.14067 105.721 6.912 105.451 6.604C105.189 6.296 105.059 5.89 105.059 5.386C105.059 4.97533 105.18 4.602 105.423 4.266C105.665 3.92067 106.011 3.65 106.459 3.454C106.916 3.258 107.439 3.16 108.027 3.16C108.904 3.16 109.609 3.384 110.141 3.832C110.682 4.27067 110.971 4.87267 111.009 5.638H109.413C109.385 5.29267 109.245 5.01733 108.993 4.812C108.741 4.60667 108.4 4.504 107.971 4.504C107.551 4.504 107.229 4.58333 107.005 4.742C106.781 4.90067 106.669 5.11067 106.669 5.372C106.669 5.57733 106.743 5.75 106.893 5.89C107.042 6.03 107.224 6.142 107.439 6.226C107.653 6.30067 107.971 6.39867 108.391 6.52C108.951 6.66933 109.408 6.82333 109.763 6.982C110.127 7.13133 110.439 7.35533 110.701 7.654C110.962 7.95267 111.097 8.34933 111.107 8.844C111.107 9.28267 110.985 9.67467 110.743 10.02C110.5 10.3653 110.155 10.636 109.707 10.832C109.268 11.028 108.75 11.126 108.153 11.126Z" fill="black"/>
</svg>
